<svg width="17" height="22" viewBox="0 0 17 22" fill="none" xmlns="http://www.w3.org/2000/svg">
<path d="M8.40039 0C11.1064 0.000211164 13.3008 2.19433 13.3008 4.90039V7H14.9004C15.9496 7.00021 16.8008 7.85118 16.8008 8.90039V19.9004C16.8006 20.9494 15.9494 21.8006 14.9004 21.8008H1.90039C0.85118 21.8008 0.000211251 20.9496 0 19.9004V8.90039C0 7.85105 0.85105 7 1.90039 7H3.5V4.90039C3.5 2.1942 5.6942 0 8.40039 0ZM1.90039 8.80078C1.84516 8.80078 1.80078 8.84516 1.80078 8.90039V19.9004C1.80099 19.9554 1.84529 20 1.90039 20H14.9004C14.9553 19.9998 14.9998 19.9553 15 19.9004V8.90039C15 8.84529 14.9554 8.80099 14.9004 8.80078H1.90039ZM4.40039 9.90039C4.9525 9.9006 5.40039 10.3482 5.40039 10.9004C5.40018 11.4524 4.95237 11.9002 4.40039 11.9004C3.84824 11.9004 3.4006 11.4525 3.40039 10.9004C3.40039 10.3481 3.84811 9.90039 4.40039 9.90039ZM12.4004 9.90039C12.9525 9.9006 13.4004 10.3482 13.4004 10.9004C13.4002 11.4524 12.9524 11.9002 12.4004 11.9004C11.8482 11.9004 11.4006 11.4525 11.4004 10.9004C11.4004 10.3481 11.8481 9.90039 12.4004 9.90039ZM8.40039 1.80078C6.68831 1.80078 5.30078 3.18831 5.30078 4.90039V7H11.5V4.90039C11.5 3.18844 10.1123 1.80099 8.40039 1.80078Z" fill="white"/>
</svg>
